HIERARCHY
ROOT Hips
{
	OFFSET 0.00000 0.00000 0.00000
	CHANNELS 6 Xposition Yposition Zposition Zrotation Yrotation Xrotation 
	JOINT LHipJoint
	{
		OFFSET 0 0 0
		CHANNELS 3 Zrotation Yrotation Xrotation
		JOINT LeftHip
		{
			OFFSET 2.36090 -1.39315 1.24752
			CHANNELS 3 Zrotation Yrotation Xrotation
			JOINT LeftKnee
			{
				OFFSET 2.06810 -5.68207 0.00000
				CHANNELS 3 Zrotation Yrotation Xrotation
				JOINT LeftAnkle
				{
					OFFSET 2.46631 -6.77613 0.00000
					CHANNELS 3 Zrotation Yrotation Xrotation
					JOINT LeftToe
					{
						OFFSET 0.26031 -0.71520 1.99545
						CHANNELS 3 Zrotation Yrotation Xrotation
						End Site
						{
							OFFSET 0.00000 -0.00000 1.05957
						}
					}
				}
			}
		}
	}
	JOINT RHipJoint
	{
		OFFSET 0 0 0
		CHANNELS 3 Zrotation Yrotation Xrotation
		JOINT RightHip
		{
			OFFSET -2.25243 -1.39315 1.24752
			CHANNELS 3 Zrotation Yrotation Xrotation
			JOINT RightKnee
			{
				OFFSET -2.17343 -5.97145 0.00000
				CHANNELS 3 Zrotation Yrotation Xrotation
				JOINT RightAnkle
				{
					OFFSET -2.52372 -6.93386 0.00000
					CHANNELS 3 Zrotation Yrotation Xrotation
					JOINT RightToe
					{
						OFFSET -0.22538 -0.61923 2.11447
						CHANNELS 3 Zrotation Yrotation Xrotation
						End Site
						{
							OFFSET -0.00000 -0.00000 1.10506
						}
					}
				}
			}
		}
	}
	JOINT lowerback
	{
		OFFSET 0 0 0
		CHANNELS 3 Zrotation Yrotation Xrotation
		JOINT Chest
		{
			OFFSET 0.01594 2.13103 0.08007
			CHANNELS 3 Zrotation Yrotation Xrotation
			JOINT Chest2
			{
				OFFSET 0.01393 2.09723 0.18338
				CHANNELS 3 Zrotation Yrotation Xrotation
				JOINT lowerneck
				{
					OFFSET 0 0 0
					CHANNELS 3 Zrotation Yrotation Xrotation
					JOINT Neck
					{
						OFFSET 0.05351 1.38915 0.32494
						CHANNELS 3 Zrotation Yrotation Xrotation
						JOINT Head
						{
							OFFSET 0.00711 1.45992 -0.21666
							CHANNELS 3 Zrotation Yrotation Xrotation
							End Site
							{
								OFFSET -0.00433 1.47702 -0.11056
							}
						}
					}
				}
				JOINT LeftCollar
				{
					OFFSET 0 0 0
					CHANNELS 3 Zrotation Yrotation Xrotation
					JOINT LeftShoulder
					{
						OFFSET 2.87198 0.92249 0.11132
CHANNELS 3 Zrotation Xrotation Yrotation
						JOINT LeftElbow
						{
OFFSET 0 -5.527310 0.000000
CHANNELS 3 Zrotation Xrotation Yrotation
							JOINT LeftWrist
							{
OFFSET 0 -3.110590 0.000000
CHANNELS 3 Zrotation Xrotation Yrotation
								JOINT lhand
								{
									OFFSET 0 0 0
CHANNELS 3 Zrotation Xrotation Yrotation
									JOINT LFingers
									{
OFFSET 0 -0.419630 0.000000
CHANNELS 3 Zrotation Xrotation Yrotation
										End Site
										{
OFFSET 0 -0.338310 0.000000
										}
									}
								}
								JOINT LThumb
								{
OFFSET 0 0.000000 0.000000
CHANNELS 3 Zrotation Xrotation Yrotation
									End Site
									{
OFFSET 0 -0.343480 0.343480
									}
								}
							}
						}
					}
				}
				JOINT RightCollar
				{
					OFFSET 0 0 0
					CHANNELS 3 Zrotation Yrotation Xrotation
					JOINT RightShoulder
					{
						OFFSET -2.94710 0.68072 0.32187
CHANNELS 3 Zrotation Xrotation Yrotation
						JOINT RightElbow
						{
OFFSET 0 -5.253960 -0.000000
CHANNELS 3 Zrotation Xrotation Yrotation
							JOINT RightWrist
							{
OFFSET 0 -3.105670 0.000000
CHANNELS 3 Zrotation Xrotation Yrotation
								JOINT rhand
								{
									OFFSET 0 0 0
CHANNELS 3 Zrotation Xrotation Yrotation
									JOINT RFingers
									{
OFFSET 0 -0.498680 0.000000
CHANNELS 3 Zrotation Xrotation Yrotation
										End Site
										{
OFFSET 0 -0.402040 0.000000
										}
									}
								}
								JOINT RThumb
								{
OFFSET 0 0.000000 0.000000
CHANNELS 3 Zrotation Xrotation Yrotation
									End Site
									{
OFFSET 0 -0.408180 0.408180
									}
								}
							}
						}
					}
				}
			}
		}
	}
}
MOTION
Frames: 10
Frame Time: 0.008333333333333333
3.642700 10.154100 3.010100 -1.854800 -3.875300 3.679700 0.000000 0.000000 0.000000 -0.271900 -8.753400 -89.994000 15.719700 19.555000 77.395500 0.423900 1.452600 11.878800 0.036000 -1.223900 -3.365100 0.000000 0.000000 0.000000 -1.261000 13.790900 -91.591700 -19.142600 -19.982400 87.492300 0.031700 -5.839800 3.106300 -0.127900 2.305100 -6.349500 1.086000 0.668700 -24.039800 0.769300 0.460100 0.542100 0.419900 0.247800 14.185000 4.449700 2.881800 -21.157600 3.263700 1.266200 34.763200 0.887200 1.625300 15.960200 0.000000 -0.000000 0.000000 11.057500 -2.634900 -22.137700 63.823900 -57.245700 37.540400 5.782900 -6.857400 -12.817400 0.000000 0.000000 0.000000 -7.125000 0.000000 0.000000 -19.173400 42.036200 -1.461300 0.000000 -0.000000 0.000000 -12.523500 -2.144400 26.511500 -66.648600 -57.835900 -39.924000 -3.146100 16.582500 24.717400 0.000000 0.000000 0.000000 7.125000 0.000000 -0.000000 26.906500 52.642700 -5.374900
3.643653 10.150287 3.008098 -1.943739 -3.851755 3.587520 0.000000 0.000000 0.000000 -0.186012 -8.755402 -89.947290 15.736191 19.558432 77.444593 0.423995 1.443925 11.882041 0.034665 -1.201403 -3.303138 0.000000 0.000000 0.000000 -1.131357 13.773932 -91.478549 -19.141551 -19.982305 87.489440 0.031700 -5.832269 3.098960 -0.131427 2.337034 -6.438153 1.212020 0.702445 -23.700536 0.753285 0.477354 0.595292 0.331915 0.266007 14.055929 4.756458 2.865785 -21.485901 2.951509 1.207479 34.948608 0.698551 1.600134 16.137220 0.000000 0.000000 0.000000 11.191623 -2.647960 -22.099856 63.968414 -57.277920 37.662035 5.521803 -7.320682 -13.200799 0.000000 0.000000 0.000000 -7.125000 0.000000 0.000000 -19.520480 42.373080 -1.320218 0.000000 0.000000 0.000000 -12.551144 -2.069665 26.534569 -66.953070 -57.894621 -40.181856 -3.186709 16.266686 24.793279 0.000000 0.000000 0.000000 7.125000 0.000000 0.000000 26.915461 52.717149 -5.428092
3.644697 10.148922 3.004283 -2.030502 -3.815155 3.491080 0.000000 0.000000 0.000000 -0.100395 -8.787047 -89.866406 15.734280 19.558056 77.439113 0.425813 1.442231 11.909667 0.036232 -1.227949 -3.376247 0.000000 0.000000 0.000000 -1.001443 13.747990 -91.338021 -19.127268 -19.981756 87.447510 0.031428 -5.836614 3.110294 -0.130059 2.324368 -6.402885 1.300239 0.698298 -23.388377 0.789123 0.447288 0.693628 0.309107 0.257563 13.994122 4.413972 2.902530 -21.324777 3.332345 1.276940 34.650483 0.925083 1.633891 15.943476 0.000000 0.000000 0.000000 11.222766 -2.725200 -22.012244 64.121358 -57.311681 37.790651 5.382995 -7.803273 -13.452120 0.000000 0.000000 0.000000 -7.125000 0.000000 0.000000 -19.722247 42.596466 -1.221380 0.000000 0.000000 0.000000 -12.665995 -2.121932 26.573320 -67.183931 -57.938565 -40.377434 -3.278082 15.987496 24.842688 0.000000 0.000000 0.000000 7.125000 0.000000 0.000000 26.860512 52.776822 -5.456536
3.645316 10.151207 3.000547 -2.118614 -3.767738 3.497248 0.000000 0.000000 0.000000 0.015557 -8.851171 -89.867156 15.725230 19.556109 77.412077 0.428063 1.482337 11.932189 0.035626 -1.218333 -3.349795 0.000000 0.000000 0.000000 -0.888021 13.714792 -91.286356 -19.106627 -19.980840 87.387229 0.031572 -5.843462 3.113477 -0.131448 2.337086 -6.438177 1.370087 0.682998 -23.192395 0.830902 0.404981 0.782427 0.300838 0.241898 13.986680 4.392748 2.892816 -21.552565 3.252489 1.284916 34.659381 0.900479 1.623142 16.000925 0.000000 0.000000 0.000000 11.249116 -2.816841 -21.952416 64.295801 -57.349992 37.937510 5.365787 -8.156089 -13.601540 0.000000 0.000000 0.000000 -7.125000 0.000000 0.000000 -19.786610 42.735588 -1.154640 0.000000 0.000000 0.000000 -12.790673 -2.187110 26.635922 -67.446763 -57.987938 -40.600237 -3.374652 15.744499 24.929766 0.000000 0.000000 0.000000 7.125000 0.000000 0.000000 26.824106 52.871070 -5.512677
3.645888 10.153714 2.996504 -2.202089 -3.721331 3.502239 0.000000 0.000000 0.000000 0.129199 -8.919800 -89.860388 15.711442 19.553198 77.370808 0.430676 1.526136 11.959709 0.035500 -1.216300 -3.344037 0.000000 0.000000 0.000000 -0.779403 13.682076 -91.234102 -19.083500 -19.979806 87.319562 0.031437 -5.854581 3.128434 -0.132432 2.345416 -6.461348 1.445711 0.676372 -22.988568 0.859377 0.374941 0.859691 0.278255 0.232752 13.961196 4.316437 2.888161 -21.673027 3.278411 1.292480 34.596243 0.926810 1.619174 15.996220 0.000000 0.000000 0.000000 11.297228 -2.888712 -21.908408 64.473347 -57.388627 38.087126 5.299408 -8.491433 -13.776474 0.000000 0.000000 0.000000 -7.125000 0.000000 0.000000 -19.902538 42.893664 -1.080746 0.000000 0.000000 0.000000 -12.893004 -2.223467 26.684362 -67.719337 -58.038471 -40.831471 -3.459470 15.500191 24.996128 0.000000 0.000000 0.000000 7.125000 0.000000 0.000000 26.785929 52.944851 -5.554246
3.646460 10.156729 2.992328 -2.283204 -3.673910 3.514677 0.000000 0.000000 0.000000 0.244326 -8.994296 -89.855665 15.694807 19.549688 77.321074 0.433422 1.575466 11.988901 0.035500 -1.215687 -3.342467 0.000000 0.000000 0.000000 -0.674676 13.648574 -91.187408 -19.058594 -19.978757 87.246637 0.031170 -5.868164 3.147509 -0.133213 2.352547 -6.481062 1.519497 0.669653 -22.791579 0.886416 0.345669 0.937794 0.255522 0.223920 13.940304 4.209412 2.884688 -21.767438 3.344149 1.302093 34.503496 0.974700 1.617344 15.970055 0.000000 0.000000 0.000000 11.346404 -2.960873 -21.877058 64.663371 -57.429610 38.247150 5.241082 -8.763612 -13.924489 0.000000 0.000000 0.000000 -7.125000 0.000000 0.000000 -20.002902 43.026978 -1.017778 0.000000 0.000000 0.000000 -12.994368 -2.263699 26.731077 -67.995374 -58.088859 -41.065734 -3.541906 15.272255 25.053817 0.000000 0.000000 0.000000 7.125000 0.000000 0.000000 26.744507 53.010607 -5.589386
3.647104 10.159515 2.988422 -2.363009 -3.627878 3.524128 0.000000 0.000000 0.000000 0.356454 -9.065354 -89.850771 15.679951 19.546569 77.276769 0.436043 1.621286 12.016247 0.035356 -1.213845 -3.337395 0.000000 0.000000 0.000000 -0.571490 13.614972 -91.140423 -19.035491 -19.977709 87.178996 0.030956 -5.880522 3.165180 -0.134407 2.362719 -6.509285 1.595250 0.664374 -22.587042 0.910585 0.318541 1.017685 0.229162 0.216375 13.916848 4.126680 2.880346 -21.880901 3.385680 1.308242 34.420235 1.007838 1.614022 15.953658 0.000000 0.000000 0.000000 11.399601 -3.027009 -21.862373 64.872883 -57.474410 38.423711 5.196600 -8.955180 -14.041834 0.000000 0.000000 0.000000 -7.125000 0.000000 0.000000 -20.081304 43.132731 -0.967267 0.000000 0.000000 0.000000 -13.092145 -2.302953 26.778433 -68.277909 -58.139695 -41.305630 -3.621749 15.064715 25.108713 0.000000 0.000000 0.000000 7.125000 0.000000 0.000000 26.703836 53.073414 -5.622552
3.647906 10.161175 2.985013 -2.443049 -3.584830 3.515366 0.000000 0.000000 0.000000 0.461828 -9.125764 -89.837426 15.670418 19.544489 77.248186 0.438213 1.655493 12.039911 0.035300 -1.212460 -3.333514 0.000000 0.000000 0.000000 -0.465713 13.582023 -91.081390 -19.016655 -19.976794 87.123840 0.030765 -5.888440 3.178543 -0.135742 2.374544 -6.542082 1.678687 0.663000 -22.356088 0.928636 0.296335 1.100371 0.192945 0.211945 13.881377 4.065373 2.877385 -21.994278 3.418780 1.311247 34.334129 1.032954 1.610949 15.936444 0.000000 0.000000 0.000000 11.462593 -3.084014 -21.867070 65.102144 -57.522885 38.617074 5.163678 -9.066120 -14.129974 0.000000 0.000000 0.000000 -7.125000 0.000000 0.000000 -20.139971 43.212157 -0.929012 0.000000 0.000000 0.000000 -13.179234 -2.335729 26.823483 -68.566464 -58.190829 -41.550818 -3.699159 14.883627 25.161031 0.000000 0.000000 0.000000 7.125000 0.000000 0.000000 26.663810 53.133615 -5.653931
3.648826 10.161412 2.982210 -2.524502 -3.543918 3.482517 0.000000 0.000000 0.000000 0.559366 -9.173748 -89.812418 15.667550 19.543900 77.239549 0.439902 1.674878 12.059620 0.035300 -1.212601 -3.333940 0.000000 0.000000 0.000000 -0.355565 13.549076 -91.004846 -19.003062 -19.976124 87.083988 0.030700 -5.892353 3.184228 -0.136951 2.385336 -6.571880 1.770216 0.664753 -22.090946 0.941299 0.278094 1.186195 0.147121 0.210111 13.829574 4.037711 2.876099 -22.116190 3.429136 1.310936 34.253767 1.042139 1.607809 15.924954 0.000000 0.000000 0.000000 11.533605 -3.130522 -21.889832 65.349365 -57.574520 38.825747 5.148279 -9.098455 -14.186086 0.000000 0.000000 0.000000 -7.125000 0.000000 0.000000 -20.172587 43.263269 -0.903990 0.000000 0.000000 0.000000 -13.254753 -2.359472 26.866459 -68.860048 -58.242019 -41.800337 -3.777149 14.731971 25.209251 0.000000 0.000000 0.000000 7.125000 0.000000 0.000000 26.620739 53.190311 -5.682092
3.649895 10.160141 2.980215 -2.608200 -3.506029 3.424912 0.000000 0.000000 0.000000 0.647768 -9.205688 -89.777670 15.672034 19.544885 77.252945 0.441079 1.675839 12.076474 0.035416 -1.214464 -3.339145 0.000000 0.000000 0.000000 -0.240562 13.516404 -90.911489 -18.995256 -19.975784 87.061099 0.030758 -5.891083 3.181782 -0.137921 2.393471 -6.594328 1.869417 0.669392 -21.789805 0.950176 0.263695 1.273943 0.093663 0.210743 13.758892 4.038145 2.875916 -22.239871 3.420448 1.307693 34.176324 1.037834 1.604415 15.915975 0.000000 0.000000 0.000000 11.608628 -3.165274 -21.929238 65.612046 -57.628741 39.047573 5.147591 -9.057869 -14.208672 0.000000 0.000000 0.000000 -7.125000 0.000000 0.000000 -20.181010 43.284472 -0.893377 0.000000 0.000000 0.000000 -13.320396 -2.371745 26.907373 -69.157394 -58.293035 -42.053183 -3.857414 14.611645 25.257624 0.000000 0.000000 0.000000 7.125000 0.000000 0.000000 26.575567 53.247627 -5.709979
